<svg width="14" height="14" viewBox="0 0 14 14" xmlns="http://www.w3.org/2000/svg"><g fill="none" fill-rule="evenodd" stroke-linecap="round" stroke-linejoin="round" stroke="currentColor"><g transform="translate(.5 3.7)"><path d="M7.73 7.36a5 5 0 0 0 2.63-2.14 2.88 2.88 0 0 0 1.25 1A1 1 0 0 0 13 5.3V2.69a1 1 0 0 0-1.39-.92 2.83 2.83 0 0 0-1.25 1C9.36 1.21 6.64 0 3.91 0A4 4 0 0 0 0 4a4 4 0 0 0 4.16 3.75h1.08"/><circle cx="3.5" cy="2.99" r="1"/></g><path d="M3.23 3.87C4 2.68 5.81 1.34 9.82 1.8a5.16 5.16 0 0 0 0 3.57M4.64 9.53a3.5 3.5 0 0 0 4 2.76L7.63 9"/></g></svg>