<svg width="14" height="14" viewBox="0 0 14 14" xmlns="http://www.w3.org/2000/svg"><g fill="none" fill-rule="evenodd" stroke-linecap="round" stroke-linejoin="round" transform="translate(.296)" stroke="currentColor"><path d="M8.344 2.5c-4.33 0-8.12.65-8.12 3.5a2.75 2.75 0 0 0 3 2.44 3.55 3.55 0 0 0 1.28-.24 1 1 0 0 1 .8 0 6.41 6.41 0 0 0 3.04.8c2.7 0 4.88-1.46 4.88-3.25s-2.18-3.25-4.88-3.25z"/><path d="M13.224 5.75v2.5c0 1.79-2.18 3.25-4.88 3.25a6.41 6.41 0 0 1-3.06-.73 1 1 0 0 0-.8 0 3.55 3.55 0 0 1-1.28.23 2.75 2.75 0 0 1-3-2.44V6"/><circle cx="3.724" cy="5.5" r="1"/></g></svg>