<svg width="14" height="14" viewBox="0 0 14 14" xmlns="http://www.w3.org/2000/svg"><g fill="none" fill-rule="evenodd" stroke-linecap="round" stroke-linejoin="round" transform="matrix(1 0 0 1.03704 .276 -.26)" stroke="currentColor"><path d="m8.814.77-.09-.02-8.25 4.86a.47.47 0 0 0-.25.39v6.71a.5.5 0 0 0 .5.5h12a.5.5 0 0 0 .5-.5v-7A5.88 5.88 0 0 0 8.814.77zM.314 5.75h12.41"/><path d="M.224 10.42v0l.08-.07a2 2 0 0 1 1.42-.6 2 2 0 0 1 2 2 2 2 0 0 1-.59 1.41l-.08.09"/><circle cx="8.724" cy="9.25" r="1.5"/></g></svg>