<svg width="14" height="14" viewBox="0 0 14 14" xmlns="http://www.w3.org/2000/svg"><g fill="none" fill-rule="evenodd" stroke-linecap="round" stroke-linejoin="round" transform="matrix(.99859 0 0 1.03853 .286 -.27)" stroke="currentColor"><path d="M.314 5.75h12.41M8.814.77l-.09-.02L.474 5.6a.5.5 0 0 0-.25.4v1.75c1 0 2.5 0 2.5 1.75s-1.53 1.75-2.5 1.75v1.5a.5.5 0 0 0 .5.5h12a.5.5 0 0 0 .5-.5v-7A5.88 5.88 0 0 0 8.814.77z"/><circle cx="9.724" cy="8.25" r="1"/><circle cx="6.224" cy="10.25" r="1"/></g></svg>