<svg width="14" height="14" viewBox="0 0 14 14" xmlns="http://www.w3.org/2000/svg"><g fill="none" fill-rule="evenodd" stroke-linecap="round" stroke-linejoin="round" stroke="currentColor"><path transform="matrix(.99993 0 0 .9517 0 .21)" d="M.5 13.983V4.768L4.83 4v9.215z"/><path d="m9.174 13.53-4.348-.733zm0 0-4.348-.733z" style="stroke-width:.978427" transform="matrix(.99827 0 0 .99578 .012 .045)"/><path transform="matrix(.99993 0 0 .9517 0 .21)" d="M9.17 13.983V4.768L13.5 4v9.215z"/><path d="M8.5 1.955c0 .83-1.5 2.833-1.5 2.833S5.5 2.785 5.5 1.955a1.5 1.5 0 0 1 3 0z" transform="matrix(.99827 0 0 .99578 .012 .045)"/></g></svg>