<svg width="512" height="512" xmlns="http://www.w3.org/2000/svg"><g fill-rule="evenodd" fill="none"><path fill="#036" d="M124.772 508.722C166.698 510.877 209.504 512 256 512c46.496 0 89.302-1.123 131.228-3.278 60.667-3.144 109.72-54.474 116.47-119.097 4.57-43.561 8.302-88.155 8.302-133.603 0-45.492-3.773-90.13-8.301-133.647-6.75-64.668-55.804-115.953-116.47-119.097C345.301 1.123 302.495 0 256 0c-46.496 0-89.302 1.123-131.228 3.278C64.105 6.422 15.052 57.752 8.302 122.375 3.731 165.936 0 210.53 0 256.022c0 45.448 3.773 90.087 8.301 133.603 6.75 64.668 55.804 115.953 116.47 119.097z"/><g fill="#CCD7E6"><path d="M353.598 55.628c2.082-2.444 1.884-4.424-.44-4.424h-11.411c-2.32 0-3.486-.265-7.224 3.665l-31.87 36.304-.086-35.545c0-2.444-1.883-4.424-4.208-4.424h-7.746c-2.324 0-4.21 1.98-4.21 4.424l-.003 80.751c0 2.44 1.883 4.421 4.207 4.421h7.782c2.324 0 4.207-1.98 4.207-4.42l.007-21.116 14.158-16.087 21.859 37.202c1.423 2.44 3.42 4.421 5.744 4.421h11.675c2.326 0 3.057-1.98 1.634-4.42l-30.15-49.842 26.075-30.91zM166.4 136.376c0 2.443 1.776 4.424 3.965 4.424h8.03c2.194 0 3.97-1.98 3.97-4.424l.035-80.752c0-2.443-1.776-4.424-3.968-4.424h-8.024c-2.195 0-3.968 1.98-3.968 4.424l-.04 80.752zM252.445 55.624c0-2.443 2.01-4.424 4.488-4.424h8.974c2.484 0 4.493 1.98 4.493 4.424l-.012 80.755c0 2.44-2.011 4.421-4.49 4.421h-8.914c-2.478 0-4.488-1.98-4.488-4.42l-.032-33.265h-36.122l.007 33.264c0 2.44-2.007 4.421-4.489 4.421h-8.972c-2.479 0-4.488-1.98-4.488-4.42l.003-80.756c0-2.443 2.01-4.424 4.488-4.424h9c2.476 0 4.49 1.98 4.49 4.424l-.039 32.487h36.122l-.019-32.487z"/></g></g><text style="cursor:text" font-weight="bold" xml:space="preserve" font-family="'Blogger Sans'" font-size="200" text-anchor="middle" y="396.2" x="256" stroke-width="0" stroke="#000" fill="#fff" id="AppTitleShort">ToDo</text></svg>