<svg version="1.1" width="512" height="512" viewBox="0 0 512 512" xmlns="http://www.w3.org/2000/svg">
 <g fill-rule="evenodd">
  <path d="m124.77 508.72c41.926 2.155 84.732 3.278 131.23 3.278s89.302-1.123 131.23-3.278c60.667-3.144 109.72-54.474 116.47-119.1 4.57-43.561 8.302-88.155 8.302-133.6 0-45.492-3.773-90.13-8.301-133.65-6.75-64.668-55.804-115.95-116.47-119.1-41.928-2.155-84.734-3.278-131.23-3.278-46.496 0-89.302 1.123-131.23 3.278-60.667 3.144-109.72 54.474-116.47 119.1-4.571 43.561-8.302 88.155-8.302 133.65 0 45.448 3.773 90.087 8.301 133.6 6.75 64.668 55.804 115.95 116.47 119.1z" fill="#036"/>
  <g fill="#CCD7E6">
   <path d="M353.598 55.628c2.082-2.444 1.884-4.424-.44-4.424h-11.411c-2.32 0-3.486-.265-7.224 3.665l-31.87 36.304-.086-35.545c0-2.444-1.883-4.424-4.208-4.424h-7.746c-2.324 0-4.21 1.98-4.21 4.424l-.003 80.751c0 2.44 1.883 4.421 4.207 4.421h7.782c2.324 0 4.207-1.98 4.207-4.42l.007-21.116 14.158-16.087 21.859 37.202c1.423 2.44 3.42 4.421 5.744 4.421h11.675c2.326 0 3.057-1.98 1.634-4.42l-30.15-49.842 26.075-30.91zM166.4 136.376c0 2.443 1.776 4.424 3.965 4.424h8.03c2.194 0 3.97-1.98 3.97-4.424l.035-80.752c0-2.443-1.776-4.424-3.968-4.424h-8.024c-2.195 0-3.968 1.98-3.968 4.424l-.04 80.752zM252.445 55.624c0-2.443 2.01-4.424 4.488-4.424h8.974c2.484 0 4.493 1.98 4.493 4.424l-.012 80.755c0 2.44-2.011 4.421-4.49 4.421h-8.914c-2.478 0-4.488-1.98-4.488-4.42l-.032-33.265h-36.122l.007 33.264c0 2.44-2.007 4.421-4.489 4.421h-8.972c-2.479 0-4.488-1.98-4.488-4.42l.003-80.756c0-2.443 2.01-4.424 4.488-4.424h9c2.476 0 4.49 1.98 4.49 4.424l-.039 32.487h36.122l-.019-32.487z"/>
  </g>
 </g>
 <g id="AppTitleShort" fill="#fff" stroke="#000" stroke-width="0" aria-label="ToDo">
  <path d="m55.918 261.33h-24.733q-7 0-11.667-4.2-4.6667-4.4333-4.6667-10.5 0-2.3333 1.1667-4.9 1.4-2.8 3.5-4.9 2.3333-2.3333 5.1333-3.7333 3.0333-1.4 6.5333-1.4h82.133q6.3 0 11.433 4.4333 5.1333 4.2 5.1333 10.5 0 6.0667-4.9 10.5-4.9 4.2-11.667 4.2h-24.733v122.03q0 6.0667-4.9 10.5-4.6667 4.4333-11.433 4.4333t-11.667-4.4333q-4.6667-4.4333-4.6667-10.5z"/>
  <path d="m177.48 397.83q-12.367 0-21.933-3.2667-9.3333-3.5-15.867-9.3333-6.3-5.8333-9.5666-13.767-3.2667-7.9333-3.2667-17.033v-34.767q0-9.1 3.2667-17.033t9.5666-13.767q6.5333-5.8333 15.867-9.1 9.5667-3.5 21.933-3.5 12.367 0 21.7 3.5 9.5667 3.2667 15.867 9.1 6.5333 5.8333 9.8 13.767t3.2667 17.033v34.767q0 9.1-3.2667 17.033-3.2667 7.9333-9.8 13.767-6.3 5.8333-15.867 9.3333-9.3333 3.2667-21.7 3.2667zm0-27.533q9.1 0 13.767-4.2 4.6667-4.2 4.6667-11.667v-35q0-7.2333-4.6667-11.433t-13.767-4.2q-9.1 0-13.767 4.2t-4.6667 11.433v35q0 7.4666 4.6667 11.667 4.6667 4.2 13.767 4.2z"/>
  <path d="m368.82 332.97q0 12.367-3.7333 23.8-3.5 11.433-11.9 20.3-8.4 8.6333-21.933 14-13.533 5.1333-33.367 5.1333h-26.367q-3.7333 0-7-1.4-3.2667-1.4-5.8333-3.5-2.3333-2.3333-3.9667-5.3667-1.4-3.0333-1.4-6.5333v-131.13q0-3.5 1.4-6.5333 1.6333-3.0333 3.9667-5.1333 2.5667-2.3333 5.8333-3.7333 3.2667-1.4 7-1.4h26.367q19.833 0 33.367 5.1333 13.533 4.9 21.933 13.533 8.4 8.4 11.9 19.6 3.7333 10.967 3.7333 23.1zm-32.667-40.133q0-6.5333-1.8667-12.367-1.8667-5.8333-5.8333-10.033-3.9667-4.4333-10.733-6.7667-6.5333-2.5667-15.867-2.5667h-15.867v105.47h15.867q9.5667 0 16.1-2.5667 6.5333-2.8 10.5-7.2333 4.2-4.6667 5.8333-10.733 1.8667-6.0667 1.8667-13.067z"/>
  <path d="m439.52 397.83q-12.367 0-21.933-3.2667-9.3333-3.5-15.867-9.3333-6.3-5.8333-9.5667-13.767-3.2667-7.9333-3.2667-17.033v-34.767q0-9.1 3.2667-17.033 3.2667-7.9333 9.5667-13.767 6.5333-5.8333 15.867-9.1 9.5666-3.5 21.933-3.5t21.7 3.5q9.5666 3.2667 15.867 9.1 6.5333 5.8333 9.8 13.767t3.2667 17.033v34.767q0 9.1-3.2667 17.033-3.2667 7.9333-9.8 13.767-6.3 5.8333-15.867 9.3333-9.3333 3.2667-21.7 3.2667zm0-27.533q9.1 0 13.767-4.2 4.6667-4.2 4.6667-11.667v-35q0-7.2333-4.6667-11.433t-13.767-4.2-13.767 4.2-4.6667 11.433v35q0 7.4666 4.6667 11.667 4.6667 4.2 13.767 4.2z"/>
 </g>
</svg>
