<svg width="1065" height="281" xmlns="http://www.w3.org/2000/svg" version="1.0"><path fill="#d3dde8" d="M0 0v280.656h280.656c31.686-90.358 31.776-190.179 0-280.656H0z"/><path fill="#004c89" d="M280.656 0c31.768 90.477 31.679 190.298 0 280.656h280.656V0H280.656z"/><path fill="#fff" d="M332.063 46.844c-2.556 0-4.594 2.076-4.594 4.625l-.063 84.344a4.633 4.633 0 0 0 4.625 4.625h9.344a4.633 4.633 0 0 0 4.625-4.625l.063-84.344a4.633 4.633 0 0 0-4.625-4.625h-9.375zm38 0a4.633 4.633 0 0 0-4.625 4.625v84.344a4.628 4.628 0 0 0 4.625 4.625h9.218a4.628 4.628 0 0 0 4.625-4.625v-34.75h37.188l.031 34.75a4.628 4.628 0 0 0 4.625 4.625h9.187a4.633 4.633 0 0 0 4.625-4.625V51.469a4.633 4.633 0 0 0-4.625-4.625h-9.25c-2.548 0-4.593 2.076-4.593 4.625v33.937h-37.188l.031-33.937a4.628 4.628 0 0 0-4.625-4.625h-9.25zm93.5 0c-2.549 0-4.594 2.076-4.594 4.625l-.031 84.344a4.628 4.628 0 0 0 4.625 4.625h8.562a4.633 4.633 0 0 0 4.625-4.625V113.75l15.563-16.781 24 38.844c1.561 2.548 3.749 4.625 6.312 4.625h12.844c2.556 0 3.35-2.077 1.781-4.625L504.125 83.75l28.656-32.281c2.287-2.549 2.072-4.625-.468-4.625H519.75c-2.556 0-3.835-.26-7.938 3.843l-35 37.907-.093-37.125a4.628 4.628 0 0 0-4.625-4.625h-8.531z"/><text transform="matrix(.95054 0 0 1 27.979 0)" stroke="#000" font-weight="500" xml:space="preserve" font-family="'Blogger Sans'" font-size="100" y="137.527" x="580.438" stroke-width="0">Musterstadt</text></svg>