<svg xmlns="http://www.w3.org/2000/svg" fill="none" viewBox="-0.5 -0.5 14 14" height="14" width="14"><g id="wheelchair-1--person-access-wheelchair-accomodation-human-disability-disabled-user"><path id="Vector" stroke="currentColor" stroke-linecap="round" stroke-linejoin="round" d="M7.428571428571429 4.178571428571429c1.025672142857143 0 1.8571428571428572 -0.8314707142857143 1.8571428571428572 -1.8571428571428572s-0.8314707142857143 -1.8571428571428572 -1.8571428571428572 -1.8571428571428572 -1.8571428571428572 0.8314707142857143 -1.8571428571428572 1.8571428571428572 0.8314707142857143 1.8571428571428572 1.8571428571428572 1.8571428571428572Z" stroke-width="1"></path><path id="Vector_2" stroke="currentColor" stroke-linecap="round" stroke-linejoin="round" d="M7.428571428571429 4.178571428571429v3.7142857142857144h2.7857142857142856c0.24625714285714287 0 0.48248571428571424 0.09783428571428571 0.6565928571428571 0.2719692857142857 0.17410714285714285 0.17414428571428572 0.27197857142857146 0.4103264285714286 0.27197857142857146 0.6566021428571429v3.7142857142857144" stroke-width="1"></path><path id="Vector_3" stroke="currentColor" stroke-linecap="round" stroke-linejoin="round" d="M5.107142857142858 6.035714285714286c-0.5866621428571428 0.0005942857142857144 -1.1622278571428573 0.1599742857142857 -1.665625 0.46123071428571427 -0.5034064285714286 0.3012564285714286 -0.9158778571428572 0.7331628571428572 -1.19366 1.2498850000000001 -0.2777914285714286 0.5167314285714286 -0.4105307142857143 1.0990107142857144 -0.3841407142857143 1.6850414285714286 0.02639 0.5861142857142857 0.210925 1.1541214285714285 0.5340307142857144 1.643757142857143 0.32309642857142856 0.4896357142857143 0.7727200000000001 0.8827928571428572 1.3011607142857144 1.1375928571428573 0.5284407142857143 0.25479999999999997 1.1159942857142857 0.3617714285714286 1.700335 0.30967857142857147 0.5843407142857143 -0.05218571428571429 1.143675 -0.2614857142857143 1.6186671428571429 -0.6058 0.47498285714285715 -0.34431428571428574 0.8479157142857142 -0.8108285714285715 1.079232142857143 -1.3499571428571429" stroke-width="1"></path></g></svg>