<svg xmlns="http://www.w3.org/2000/svg" fill="none" viewBox="-0.5 -0.5 14 14" height="14" width="14"><g id="braille-blind--disability-braille-blind"><path id="Vector 107" stroke="currentColor" stroke-linecap="round" stroke-linejoin="round" d="m2.6311257142857145 12.489007142857144 -0.3658664285714286 -0.6160142857142857c-0.5648128571428572 -0.9510428571428572 -0.012108571428571429 -2.174157142857143 1.0749235714285714 -2.3787214285714287l0.9621114285714285 -0.18107142857142858 0 -4.371547142857143c0 -0.7102457142857144 0.57577 -1.2860064285714286 1.2860064285714286 -1.2860064285714286v0c0.7102457142857144 0 1.2860064285714286 0.5757607142857143 1.2860064285714286 1.2860064285714286l0 2.983045 1.3824942857142857 0c1.3195557142857144 0 2.38927 1.0696957142857144 2.38927 2.3892235714285714l0 2.1750857142857143" stroke-width="1"></path><g id="Group 2639"><path id="Vector" stroke="currentColor" stroke-linecap="round" stroke-linejoin="round" d="M1.5939392857142858 1.4540685714285715c-0.19230714285714287 0 -0.3482142857142857 -0.15590714285714286 -0.3482142857142857 -0.3482142857142857 0 -0.19231364285714286 0.15590714285714286 -0.34821614285714286 0.3482142857142857 -0.34821614285714286" stroke-width="1"></path><path id="Vector_2" stroke="currentColor" stroke-linecap="round" stroke-linejoin="round" d="M1.5939392857142858 1.4540685714285715c0.19231642857142855 0 0.3482142857142857 -0.15590714285714286 0.3482142857142857 -0.3482142857142857 0 -0.19231364285714286 -0.15589785714285717 -0.34821614285714286 -0.3482142857142857 -0.34821614285714286" stroke-width="1"></path></g><g id="Group 2641"><path id="Vector_3" stroke="currentColor" stroke-linecap="round" stroke-linejoin="round" d="M5.548985 1.4540685714285715c-0.19230714285714287 0 -0.3482142857142857 -0.15590714285714286 -0.3482142857142857 -0.3482142857142857 0 -0.19231364285714286 0.15590714285714286 -0.34821614285714286 0.3482142857142857 -0.34821614285714286" stroke-width="1"></path><path id="Vector_4" stroke="currentColor" stroke-linecap="round" stroke-linejoin="round" d="M5.548985 1.4540685714285715c0.19231642857142855 0 0.3482142857142857 -0.15590714285714286 0.3482142857142857 -0.3482142857142857 0 -0.19231364285714286 -0.15589785714285717 -0.34821614285714286 -0.3482142857142857 -0.34821614285714286" stroke-width="1"></path></g><g id="Group 2642"><path id="Vector_5" stroke="currentColor" stroke-linecap="round" stroke-linejoin="round" d="M11.91682142857143 1.4540685714285715c-0.19230714285714287 0 -0.3482142857142857 -0.15590714285714286 -0.3482142857142857 -0.3482142857142857 0 -0.19231364285714286 0.15590714285714286 -0.34821614285714286 0.3482142857142857 -0.34821614285714286" stroke-width="1"></path><path id="Vector_6" stroke="currentColor" stroke-linecap="round" stroke-linejoin="round" d="M11.91682142857143 1.4540685714285715c0.19230714285714287 0 0.3482142857142857 -0.15590714285714286 0.3482142857142857 -0.3482142857142857 0 -0.19231364285714286 -0.15590714285714286 -0.34821614285714286 -0.3482142857142857 -0.34821614285714286" stroke-width="1"></path></g><g id="Group 2643"><path id="Vector_7" stroke="currentColor" stroke-linecap="round" stroke-linejoin="round" d="M11.91682142857143 4.784770714285714c-0.19230714285714287 0 -0.3482142857142857 -0.15589785714285717 -0.3482142857142857 -0.3482142857142857 0 -0.19230714285714287 0.15590714285714286 -0.3482142857142857 0.3482142857142857 -0.3482142857142857" stroke-width="1"></path><path id="Vector_8" stroke="currentColor" stroke-linecap="round" stroke-linejoin="round" d="M11.91682142857143 4.784770714285714c0.19230714285714287 0 0.3482142857142857 -0.15589785714285717 0.3482142857142857 -0.3482142857142857 0 -0.19230714285714287 -0.15590714285714286 -0.3482142857142857 -0.3482142857142857 -0.3482142857142857" stroke-width="1"></path></g><g id="Group 2644"><path id="Vector_9" stroke="currentColor" stroke-linecap="round" stroke-linejoin="round" d="M9.226322857142858 4.784770714285714c-0.19231642857142855 0 -0.3482142857142857 -0.15589785714285717 -0.3482142857142857 -0.3482142857142857 0 -0.19230714285714287 0.15589785714285717 -0.3482142857142857 0.3482142857142857 -0.3482142857142857" stroke-width="1"></path><path id="Vector_10" stroke="currentColor" stroke-linecap="round" stroke-linejoin="round" d="M9.226322857142858 4.784770714285714c0.19227 0 0.3481771428571429 -0.15589785714285717 0.3481771428571429 -0.3482142857142857 0 -0.19230714285714287 -0.15590714285714286 -0.3482142857142857 -0.3481771428571429 -0.3482142857142857" stroke-width="1"></path></g><g id="Group 2645"><path id="Vector_11" stroke="currentColor" stroke-linecap="round" stroke-linejoin="round" d="M1.5936050000000002 4.784770714285714c-0.19231642857142855 0 -0.3482142857142857 -0.15589785714285717 -0.3482142857142857 -0.3482142857142857 0 -0.19230714285714287 0.15589785714285717 -0.3482142857142857 0.3482142857142857 -0.3482142857142857" stroke-width="1"></path><path id="Vector_12" stroke="currentColor" stroke-linecap="round" stroke-linejoin="round" d="M1.5936050000000002 4.784770714285714c0.19230714285714287 0 0.3482142857142857 -0.15589785714285717 0.3482142857142857 -0.3482142857142857 0 -0.19230714285714287 -0.15590714285714286 -0.3482142857142857 -0.3482142857142857 -0.3482142857142857" stroke-width="1"></path></g><g id="Group 2646"><path id="Vector_13" stroke="currentColor" stroke-linecap="round" stroke-linejoin="round" d="M1.5936050000000002 8.09859142857143c-0.19231642857142855 0 -0.3482142857142857 -0.15590714285714286 -0.3482142857142857 -0.3482142857142857 0 -0.19231642857142855 0.15589785714285717 -0.3482142857142857 0.3482142857142857 -0.3482142857142857" stroke-width="1"></path><path id="Vector_14" stroke="currentColor" stroke-linecap="round" stroke-linejoin="round" d="M1.5936050000000002 8.09859142857143c0.19230714285714287 0 0.3482142857142857 -0.15590714285714286 0.3482142857142857 -0.3482142857142857 0 -0.19231642857142855 -0.15590714285714286 -0.3482142857142857 -0.3482142857142857 -0.3482142857142857" stroke-width="1"></path></g></g></svg>