<svg width="14" height="14" fill="none" version="1.1" viewBox="0 0 14 14" xmlns="http://www.w3.org/2000/svg"><g fill="none" stroke="currentColor" stroke-linecap="round" stroke-linejoin="round" stroke-width=".6px"><path transform="matrix(1 0 0 1.02 1.6 -.242)" d="m1.35 11.5h-0.00982c-0.363-0.03-0.628-0.36-0.599-0.72 0.0196-0.37 0.334-0.64 0.687-0.62l-0.668-0.04h-0.00982c-0.344-0.02-0.599-0.32-0.579-0.67 0.0295-0.34 0.324-0.6 0.658-0.57l0.678 0.04c-0.353-0.02-0.628-0.34-0.599-0.71 0.0196-0.37 0.324-0.65 0.687-0.63l4.18 0.26-0.776-1.15s-0.0196-0.03-0.0295-0.05c-0.187-0.33-0.0786-0.75 0.236-0.951 0.236-0.14 0.52-0.12 0.736 0.05l2.26 1.79c0.687 0.54 1.07 1.41 1.01 2.31l-0.0687 1.2c-0.0393 0.61-0.304 1.18-0.746 1.59-0.442 0.4-1.01 0.61-1.6 0.57l-4.89-0.31c-0.353-0.02-0.628-0.34-0.599-0.71 0.0196-0.37 0.324-0.65 0.668-0.64z"/><path d="m5.13 8.99-1.93-0.122"/><path d="m5.2 10.2-2.19-0.119"/><path d="m3.59 11.5 1.93 0.122"/><path transform="matrix(1 0 0 1.02 1.6 -.242)" d="m3.38 3.81 0.938 1.04"/><path transform="matrix(1 0 0 1.02 1.6 -.242)" d="m3.89 6.4-1.56-1.76c-0.22-0.29-0.16-0.7 0.13-0.93 0.29-0.22 0.7-0.18 0.93 0.1l-0.39-0.51v-0.01c-0.22-0.3-0.15-0.72 0.14-0.93 0.29-0.22 0.71-0.17 0.93 0.12l-0.42-0.54c-0.21-0.28-0.16-0.68 0.11-0.89 0.28-0.2 0.66-0.15 0.87 0.12l0.42 0.54c-0.22-0.29-0.16-0.71 0.13-0.93 0.29-0.23 0.71-0.18 0.93 0.11l2.61 3.38 0.35-1.35s0.01-0.04 0.02-0.05c0.12-0.36 0.52-0.56 0.87-0.44 0.26 0.09 0.44 0.32 0.46 0.59l0.17 2.91c0.05 0.89 0.158 1.03-0.552 1.58"/><path transform="matrix(1 0 0 1.02 1.6 -.242)" d="m6.5 3.54-1.45-1.82"/><path transform="matrix(1 0 0 1.02 1.6 -.242)" d="m5.38 4.07-1.31-1.58"/></g></svg>
