<svg xmlns="http://www.w3.org/2000/svg" fill="none" viewBox="-0.5 -0.5 14 14" height="14" width="14"><g id="hearing-deaf-1--disability-hearing-deaf"><path id="Vector 887" stroke="currentColor" stroke-linecap="round" stroke-linejoin="round" d="M12.535714285714286 12.535807142857143 0.4642857142857143 0.46439899999999995" stroke-width="1"></path><path id="Vector" stroke="currentColor" stroke-linecap="round" stroke-linejoin="round" d="M8.656430714285715 8.656505000000001c0.16755142857142857 -0.21076714285714285 0.32049642857142857 -0.3770928571428572 0.43043000000000003 -0.4687057142857143 0.7495892857142857 -0.9369378571428572 1.9363035714285712 -1.717727142857143 1.7802107142857142 -3.872681428571429 -0.1561857142857143 -2.1549635714285715 -2.061289285714286 -3.5291360000000003 -4.7471821428571435 -3.1543571428571426C4.803249285714285 1.3444785714285714 4.013517857142857 2.288074285714286 3.5753714285714286 3.25" stroke-width="1"></path><path id="Vector_2" stroke="currentColor" stroke-linecap="round" stroke-linejoin="round" d="M7.587821428571429 10.530092857142858c-0.2498414285714286 0.8494571428571428 -0.7378892857142857 1.6601000000000001 -1.9987964285714288 1.7801642857142859 -0.7796564285714286 0.07428571428571429 -1.1555607142857143 -0.2185857142857143 -1.4366392857142858 -0.4996642857142857" stroke-width="1"></path><path id="Vector 1241" stroke="currentColor" stroke-linecap="round" stroke-linejoin="round" d="M5.846471428571428 3.8127421428571426c0.34354357142857145 -0.5465292857142857 0.6892878571428572 -0.7367564285714285 1.0306307142857143 -0.8276171428571428 1.422525 -0.37863428571428576 2.5111264285714285 1.407315 1.2804814285714288 2.7326928571428573" stroke-width="1"></path></g></svg>