<svg xmlns="http://www.w3.org/2000/svg" fill="none" viewBox="0 0 14 14" height="14" width="14"><g id="notification-alarm-2--android-phone-mobile-device-smartphone-iphone-alert-bell-alarm"><path id="Vector" stroke="currentColor" stroke-linecap="round" stroke-linejoin="round" d="M9.982142857142858 5.107142857142858c1.2820785714285714 0 2.3214285714285716 -1.0393407142857143 2.3214285714285716 -2.3214285714285716S11.264221428571428 0.4642857142857143 9.982142857142858 0.4642857142857143C8.700054999999999 0.4642857142857143 7.660714285714286 1.5036264285714285 7.660714285714286 2.7857142857142856s1.0393407142857143 2.3214285714285716 2.3214285714285716 2.3214285714285716Z" stroke-width="1"></path><path id="Vector_2" stroke="currentColor" stroke-linecap="round" stroke-linejoin="round" d="M9.223165714285713 7.428571428571429v1.4240292857142858c0 0.3631828571428572 0.14426285714285714 0.7114992857142857 0.4011057142857143 0.9683421428571428 0.25675000000000003 0.25675000000000003 0.6911357142857143 0.40105 1.0543 0.40105H0.4642857142857143c0.36318657142857147 0 0.7975314285714286 -0.1443 1.0543464285714286 -0.40105 0.25680571428571425 -0.25684285714285715 0.40108714285714286 -0.6051592857142858 0.40108714285714286 -0.9683421428571428l-0.00000928571428571429 -3.343739285714286c0 -0.9684907142857144 0.384735 -1.897322142857143 1.0695657142857142 -2.5821528571428574C3.6741064285714287 2.2418778571428573 4.602937857142858 1.8571428571428572 5.571428571428571 1.8571428571428572" stroke-width="1"></path><path id="Vector_3" stroke="currentColor" stroke-linecap="round" stroke-linejoin="round" d="M4.642857142857143 12.535714285714286h1.8571428571428572" stroke-width="1"></path></g></svg>