<svg xmlns="http://www.w3.org/2000/svg" fill="none" viewBox="0 0 14 14" height="14" width="14"><g id="notification-message-alert--android-phone-mobile-device-smartphone-iphone-alert-message-text"><path id="Vector" stroke="currentColor" stroke-linecap="round" stroke-linejoin="round" d="M8.821428571428571 2.3214285714285716V3.7142857142857144" stroke-width="1"></path><g id="Group 623"><path id="Vector_2" stroke="currentColor" stroke-linecap="round" stroke-linejoin="round" d="M8.821428571428571 5.803571428571429c-0.12820785714285715 0 -0.23214285714285715 -0.103935 -0.23214285714285715 -0.23214285714285715s0.103935 -0.23214285714285715 0.23214285714285715 -0.23214285714285715" stroke-width="1"></path><path id="Vector_3" stroke="currentColor" stroke-linecap="round" stroke-linejoin="round" d="M8.821428571428571 5.803571428571429c0.12820785714285715 0 0.23214285714285715 -0.103935 0.23214285714285715 -0.23214285714285715s-0.103935 -0.23214285714285715 -0.23214285714285715 -0.23214285714285715" stroke-width="1"></path></g><path id="Vector_4" stroke="currentColor" stroke-linecap="round" stroke-linejoin="round" d="M8.821428571428571 0.4642857142857143C7.836335000000001 0.4642857142857143 6.891597142857143 0.8556107857142857 6.195029285714286 1.552172142857143 5.498470714285714 2.24874 5.107142857142858 3.1934778571428573 5.107142857142858 4.178571428571429c0.0026742857142857145 0.5037221428571429 0.10361000000000001 1.0020771428571429 0.29714285714285715 1.4671428571428573L4.642857142857143 7.428571428571429l1.9871428571428573 -0.2507142857142857c0.47362714285714286 0.3459764285714286 1.0224592857142858 0.5748692857142857 1.6015628571428573 0.66794 0.5791035714285715 0.09307071428571428 1.171987142857143 0.04767285714285714 1.7302442857142857 -0.13247928571428572 0.5581642857142857 -0.18015214285714284 1.0657214285714285 -0.48994214285714294 1.4811642857142857 -0.9039921428571429 0.41544285714285717 -0.4140592857142857 0.7268857142857144 -0.9206135714285715 0.9088857142857143 -1.4781928571428573 0.18200000000000002 -0.5575885714285714 0.22935714285714287 -1.150342142857143 0.13826428571428573 -1.729752142857143 -0.09118571428571429 -0.57941 -0.3182214285714286 -1.1290035714285716 -0.6626285714285715 -1.6037728571428571 -0.34440714285714286 -0.47477857142857144 -0.7963428571428572 -0.8612407142857144 -1.3188499999999999 -1.1277509285714287C9.986135714285716 0.6033467142857143 9.408007142857144 0.46436371428571427 8.821428571428571 0.4642857142857143v0Z" stroke-width="1"></path><path id="Vector_5" stroke="currentColor" stroke-linecap="round" stroke-linejoin="round" d="M4.642857142857143 0.4642857142857143H1.3928571428571428c-0.5128360714285715 0 -0.9285714285714286 0.41573535714285714 -0.9285714285714286 0.9285714285714286v10.214285714285715c0 0.51285 0.41573535714285714 0.9285714285714286 0.9285714285714286 0.9285714285714286h6.5c0.5128314285714286 0 0.9285714285714286 -0.4157214285714286 0.9285714285714286 -0.9285714285714286v-1.8571428571428572" stroke-width="1"></path><path id="Vector_6" stroke="currentColor" stroke-linecap="round" stroke-linejoin="round" d="M4.178571428571429 10.214285714285715h0.9285714285714286" stroke-width="1"></path></g></svg>