<svg width="14" height="14" fill="none" version="1.1" viewBox="0 0 14 14" xmlns="http://www.w3.org/2000/svg"><g id="a" transform="translate(.5 .5)" stroke="currentColor" stroke-linecap="round" stroke-linejoin="round"><path id="b" d="m8.82 2.32v1.39"/><path d="m8.82 5.8c-0.128 0-0.232-0.104-0.232-0.232 0-0.128 0.104-0.232 0.232-0.232"/><path d="m8.82 5.8c0.128 0 0.232-0.104 0.232-0.232 0-0.128-0.104-0.232-0.232-0.232"/><path d="m8.82 0.464c-0.985 0-1.93 0.391-2.63 1.09-0.697 0.697-1.09 1.64-1.09 2.63 0.00267 0.504 0.104 1 0.297 1.47l-0.761 1.78 1.99-0.251c0.474 0.346 1.02 0.575 1.6 0.668 0.579 0.0931 1.17 0.0477 1.73-0.132 0.558-0.18 1.07-0.49 1.48-0.904 0.415-0.414 0.727-0.921 0.909-1.48 0.182-0.558 0.229-1.15 0.138-1.73-0.0912-0.579-0.318-1.13-0.663-1.6-0.344-0.475-0.796-0.861-1.32-1.13-0.523-0.267-1.1-0.405-1.69-0.406z"/><path d="m4.64 0.464h-3.25c-0.513 0-0.929 0.416-0.929 0.929v10.2c0 0.513 0.416 0.929 0.929 0.929h6.5c0.513 0 0.929-0.416 0.929-0.929v-1.86"/><path d="m4.18 10.2h0.929"/></g></svg>