<svg width="14" height="14" fill="none" version="1.1" viewBox="0 0 14 14" xmlns="http://www.w3.org/2000/svg"><g transform="translate(.481 .463)" stroke="currentColor" stroke-linecap="round" stroke-linejoin="round"><path id="a" d="m11.5 12.5h-8.66c-0.363 0-0.711-0.144-0.967-0.401-0.257-0.256-0.401-0.604-0.401-0.967 0-0.363 0.144-0.711 0.401-0.967 0.257-0.256 0.604-0.401 0.967-0.401h7.75c0.242 0 0.474-0.0961 0.645-0.267 0.171-0.171 0.267-0.403 0.267-0.645v-7.3c0-0.242-0.096-0.474-0.267-0.645-0.171-0.171-0.403-0.267-0.645-0.267h-7.75c-0.357-1.26e-4 -0.699 0.139-0.955 0.388-0.256 0.249-0.404 0.587-0.413 0.944v9.12"/><path d="m10.6 9.73v2.74"/><path id="b" d="m6.99 7.65c0.309 0.131 0.652 0.16 0.979 0.0827 0.327-0.077 0.62-0.256 0.839-0.511l0.229-0.229c0.0996-0.08 0.164-0.195 0.181-0.322 0.0165-0.127-0.0166-0.255-0.0923-0.358l-0.739-0.739c-0.103-0.0758-0.231-0.109-0.358-0.0923-0.127 0.0165-0.242 0.0814-0.322 0.181s-0.195 0.164-0.322 0.181c-0.127 0.0165-0.255-0.0166-0.358-0.0923l-1.18-1.18c-0.0758-0.103-0.109-0.231-0.0923-0.358 0.0165-0.127 0.0814-0.242 0.181-0.322 0.0996-0.08 0.164-0.195 0.181-0.322 0.0165-0.127-0.0166-0.255-0.0923-0.358l-0.739-0.739c-0.103-0.0758-0.231-0.109-0.358-0.0923-0.127 0.0165-0.242 0.0814-0.322 0.181l-0.229 0.229c-0.254 0.219-0.432 0.513-0.509 0.839-0.077 0.326-0.0486 0.669 0.081 0.978 0.749 1.25 1.79 2.29 3.04 3.04z"/></g></svg>